Coordinates
version=1
nRows=10
nColumns=40
inDegrees=yes

Units are S.I. units (second, meters, Newtons, ...)
If the header above contains a line with 'inDegrees', this indicates whether rotational values are in degrees (yes) or radians (no).

endheader
time	pelvis_tilt	pelvis_list	pelvis_rotation	pelvis_tx	pelvis_ty	pelvis_tz	hip_flexion_r	hip_adduction_r	hip_rotation_r	knee_angle_r	knee_angle_r_beta	ankle_angle_r	subtalar_angle_r	mtp_angle_r	hip_flexion_l	hip_adduction_l	hip_rotation_l	knee_angle_l	knee_angle_l_beta	ankle_angle_l	subtalar_angle_l	mtp_angle_l	lumbar_extension	lumbar_bending	lumbar_rotation	arm_flex_r	arm_add_r	arm_rot_r	elbow_flex_r	pro_sup_r	wrist_flex_r	wrist_dev_r	arm_flex_l	arm_add_l	arm_rot_l	elbow_flex_l	pro_sup_l	wrist_flex_l	wrist_dev_l
      7.78333333	      2.97699873	      0.59808984	      3.61225590	     -0.19233669	      1.09864685	      0.04338392	     40.58273377	    -10.43644638	     -2.44457938	     79.69544581	      1.39094793	    -14.42480026	    -34.71071231	      0.00000000	     61.24572206	     -3.02692938	      5.16058842	     69.50216980	      1.21304170	    -10.73517574	    -28.04123883	      0.00000000	    -60.54202016	      0.84382162	     -4.99407865	     88.65158332	     -2.27746186	      5.89150202	     31.24473183	      8.79152030	      0.00000000	      0.00000000	     89.60068657	    -20.09988254	     28.77713917	     49.28238121	     88.92092205	      0.00000000	      0.00000000
      7.79166667	      2.96952571	      0.48939669	      3.58614890	     -0.19204076	      1.09876434	      0.04293951	     41.51399293	    -10.43568372	     -2.16791689	     81.57038880	      1.42367186	    -14.15234878	    -34.97736844	      0.00000000	     59.89088858	     -3.07941831	      5.09845505	     67.38659853	      1.17611802	    -11.61697050	    -28.89191448	      0.00000000	    -60.52930550	      0.96426521	     -4.84110774	     88.63933500	     -2.40383550	      6.33269372	     31.28988184	      7.77123538	      0.00000000	      0.00000000	     89.58388053	    -19.98509990	     28.56848961	     49.13177794	     88.88642722	      0.00000000	      0.00000000
      7.80000000	      2.71162056	      0.24213908	      3.71568167	     -0.19203681	      1.09850371	      0.04240758	     42.73300421	    -10.43851253	     -2.07457417	     83.44007805	      1.45630409	    -13.55570393	    -34.54605812	      0.00000000	     58.68502137	     -2.83046606	      5.66489587	     65.18896672	      1.13776211	    -12.02424810	    -29.44078312	      0.00000000	    -60.26374088	      1.28979174	     -4.67153198	     88.64139713	     -2.62323622	      7.22577376	     31.37925230	      6.73460678	      0.00000000	      0.00000000	     89.58867486	    -20.08857168	     28.87346152	     49.15728077	     88.87496756	      0.00000000	      0.00000000
      7.80833333	      2.90481893	     -0.14086351	      3.70665221	     -0.19152492	      1.09872581	      0.04237506	     43.35662405	    -10.08505940	     -1.87244605	     85.35257910	      1.48968353	    -12.41892444	    -33.87009952	      0.00000000	     57.23853820	     -3.29346024	      5.71086255	     63.29527186	      1.10471089	    -12.32037576	    -28.70941321	      0.00000000	    -60.41306601	      1.57192151	     -4.31538106	     88.63837330	     -2.61345393	      7.26162947	     31.36580865	      6.68894721	      0.00000000	      0.00000000	     89.58115669	    -20.17152626	     29.06919017	     49.11316786	     88.87397320	      0.00000000	      0.00000000
      7.81666667	      3.07719844	     -0.48077454	      3.69490285	     -0.19094568	      1.09887889	      0.04214933	     44.11575199	     -9.91115845	     -1.73789868	     87.22473573	      1.52235883	    -11.44163718	    -32.70785843	      0.00000000	     55.64630504	     -3.61231777	      5.90033051	     61.29664256	      1.06982823	    -12.17672208	    -27.59091574	      0.00000000	    -60.53734840	      1.83997438	     -3.97563477	     88.60359566	     -2.48007383	      6.34938804	     31.40629282	      9.11707627	      0.00000000	      0.00000000	     89.58411941	    -20.33334690	     29.54821689	     49.12936305	     88.94536246	      0.00000000	      0.00000000
      7.82500000	      3.16372667	     -0.74766990	      3.68159718	     -0.19055074	      1.09886559	      0.04182521	     44.95141572	     -9.76913626	     -1.63153913	     88.88700002	      1.55137081	    -11.11474479	    -32.94854107	      0.00000000	     54.17475032	     -3.83563731	      5.96219677	     59.24191604	      1.03396649	    -13.11776678	    -28.36308827	      0.00000000	    -60.59188563	      2.06191411	     -3.69200830	     88.60618428	     -2.72551663	      7.53954812	     31.44330628	      6.60397495	      0.00000000	      0.00000000	     89.56413487	    -20.30784278	     29.55288102	     49.04901139	     88.86499331	      0.00000000	      0.00000000
      7.83333333	      3.31732742	     -1.05141952	      3.68034867	     -0.19011842	      1.09899355	      0.04164704	     45.81037425	     -9.59929548	     -1.57655452	     90.58439431	      1.58099593	    -10.90417334	    -33.03394652	      0.00000000	     52.60570237	     -4.14233427	      6.01518117	     57.19492376	      0.99823974	    -13.64154039	    -28.28255678	      0.00000000	    -60.71350767	      2.30541224	     -3.40600456	     88.59759547	     -2.61041286	      6.97201336	     31.43424663	      7.77980927	      0.00000000	      0.00000000	     89.55391513	    -20.37797681	     29.69757513	     49.02665429	     88.85900387	      0.00000000	      0.00000000
      7.84166667	      3.27763947	     -1.29760940	      3.57647766	     -0.18984574	      1.09875750	      0.04142763	     46.92277763	     -9.49047334	     -1.35838177	     92.29729126	      1.61089162	    -10.24944024	    -32.24962652	      0.00000000	     51.25900279	     -4.45301650	      5.99970850	     55.23880821	      0.96409908	    -14.29824060	    -28.35333941	      0.00000000	    -60.63419111	      2.44365323	     -3.10350249	     88.56968409	     -2.72122917	      7.34824542	     31.51788906	      7.59656780	      0.00000000	      0.00000000	     89.52443231	    -20.39825710	     29.82683842	     48.94163205	     88.86753888	      0.00000000	      0.00000000
      7.85000000	      3.52221991	     -1.72432464	      3.69491973	     -0.18936268	      1.09897524	      0.04129674	     47.69664544	     -9.26971267	     -1.45171820	     93.88099822	      1.63853252	    -10.01806780	    -32.09585575	      0.00000000	     49.68580806	     -4.88015740	      6.15599084	     53.34635618	      0.93106956	    -14.30689575	    -27.12737273	      0.00000000	    -60.84068431	      2.84373920	     -2.76522755	     88.56800763	     -2.63876015	      6.97580908	     31.50065852	      8.46731960	      0.00000000	      0.00000000	     89.54104861	    -20.60177005	     30.32017771	     49.01898058	     88.84259107	      0.00000000	      0.00000000
      7.85833333	      3.49732050	     -2.11503360	      3.56626706	     -0.18921056	      1.09877666	      0.04127689	     48.84739281	     -8.99741685	     -1.38026073	     95.43938053	      1.66573143	     -9.77406924	    -31.79813386	      0.00000000	     48.30794060	     -5.39108840	      6.13723392	     51.39702716	      0.89704735	    -15.00099858	    -27.07625087	      0.00000000	    -60.79125040	      3.02942314	     -2.32642075	     88.55571436	     -2.85829143	      7.96861307	     31.61749445	      6.73386590	      0.00000000	      0.00000000	     89.51226791	    -20.59689865	     30.33123592	     48.94853928	     88.84772765	      0.00000000	      0.00000000
